<svg version="1.1" id="Layer_1" xmlns="http://www.w3.org/2000/svg" xmlns:xlink="http://www.w3.org/1999/xlink" x="0px" y="0px"
	 width="100%" viewBox="0 0 496 496" enable-background="new 0 0 496 496" xml:space="preserve">
<path fill="white" opacity="1.000000" stroke="none" 
	d="
M497.000000,451.531342 
	C489.109009,442.402222 481.123230,432.869202 471.393158,425.047668 
	C463.359039,418.589478 462.288971,409.969818 464.646820,401.087280 
	C468.584564,386.252899 474.269775,372.150879 485.670715,361.050903 
	C489.449646,357.371674 491.948059,352.438660 496.720245,349.180847 
	C497.000000,383.020905 497.000000,417.041779 497.000000,451.531342 
z"/>
<path fill="white" opacity="1.000000" stroke="none" 
	d="
M96.903824,320.923401 
	C76.724266,258.853394 98.128418,192.527069 150.419128,153.812363 
	C178.149063,133.281815 209.123657,122.203072 243.632629,123.932083 
	C289.419281,126.226151 327.797272,144.789230 355.847351,181.525528 
	C370.056580,200.134857 377.622833,222.174957 381.127625,245.417435 
	C385.577972,274.930756 383.266754,303.806885 372.432709,331.755280 
	C356.210114,373.604553 325.976715,400.221954 282.873474,411.610657 
	C244.086121,421.859009 205.614243,420.160522 168.722153,403.430115 
	C132.543091,387.023102 109.279884,358.846558 96.903824,320.923401 
M156.222351,390.262604 
	C161.216858,392.923157 166.068283,395.906860 171.229034,398.191956 
	C205.143372,413.208466 240.382263,415.830597 276.195343,407.427002 
	C315.108582,398.295898 344.723267,376.481873 362.439026,339.939911 
	C374.394470,315.279572 378.464722,289.170441 376.894958,261.912323 
	C375.430145,236.476395 368.570221,212.846741 355.215790,191.110260 
	C350.124176,182.822830 344.380005,175.499039 333.920319,173.813141 
	C332.149414,173.527695 330.475891,172.593018 328.779205,171.904449 
	C326.983398,171.175629 325.773041,169.953583 327.267029,168.112762 
	C330.838745,163.711899 327.964844,161.124268 324.724030,158.769180 
	C291.493073,134.620346 254.631836,124.710922 213.932114,131.767502 
	C183.771347,136.996811 157.870499,151.379959 136.934494,173.348862 
	C97.420761,214.812012 85.869820,263.530273 102.436356,318.573608 
	C104.009941,323.801941 105.629829,329.161774 109.128494,333.956818 
	C110.903259,330.746155 108.632820,327.661926 110.538567,323.808594 
	C113.510201,330.967773 115.382401,337.419373 116.941101,343.925934 
	C118.847244,351.882751 122.429268,358.859253 127.685875,365.087341 
	C135.803329,374.705017 144.986237,383.093964 156.222351,390.262604 
z"/>
<path fill="white" opacity="1.000000" stroke="none" 
	d="
M52.681076,260.875244 
	C55.309029,229.376877 64.458633,200.384216 80.521378,173.714859 
	C101.963058,138.114685 130.913162,110.970703 170.327896,96.205597 
	C194.492844,87.153191 219.527954,83.834610 245.344971,85.396057 
	C268.955475,86.824066 291.798737,91.465950 313.976685,99.575081 
	C315.227112,100.032295 316.488556,100.485497 317.679443,101.073143 
	C319.415588,101.929825 321.887848,102.593811 320.619019,105.287689 
	C319.470367,107.726448 317.299622,106.912239 315.390320,106.157013 
	C300.942688,100.442215 286.043640,96.269600 270.718933,93.839127 
	C220.958893,85.947243 173.901169,91.898270 132.804123,123.458359 
	C94.381760,152.964447 70.766869,192.145523 61.421715,239.605270 
	C52.212734,286.373444 58.950340,331.588898 76.391022,375.524689 
	C76.759476,376.452911 77.190308,377.356171 77.576485,378.277588 
	C78.305389,380.016724 78.222420,381.647064 76.403175,382.582214 
	C74.442696,383.589874 73.239120,382.345642 72.438950,380.731293 
	C71.478668,378.793945 70.565460,376.823273 69.787506,374.807007 
	C60.388496,350.446808 54.568192,325.303192 52.546486,299.221375 
	C51.564468,286.552429 51.303043,273.961487 52.681076,260.875244 
z"/>
<path fill="white" opacity="1.000000" stroke="none" 
	d="
M378.228333,110.349548 
	C376.283417,121.476486 380.029205,129.353073 389.409088,134.913452 
	C392.077759,136.495422 395.498932,138.924072 393.581482,142.926086 
	C391.806030,146.631699 388.030151,147.443832 384.187073,147.249969 
	C379.913940,147.034409 375.958313,145.413773 372.635010,142.956070 
	C365.536926,137.706787 357.402435,136.919693 349.050812,136.277115 
	C342.613647,135.781845 336.203827,134.806824 329.821442,133.795212 
	C327.739807,133.465271 325.679626,132.540985 323.798737,131.535004 
	C321.987793,130.566422 320.676025,128.913315 320.913025,126.668335 
	C321.160461,124.324944 322.976990,123.293640 324.992126,122.845566 
	C330.649384,121.587631 336.338745,120.474152 341.873352,119.333008 
	C342.752686,117.817764 341.794739,116.860687 341.244080,115.944557 
	C338.156616,110.807732 338.461884,105.468651 340.260254,100.077667 
	C341.280731,97.018547 342.636078,93.758530 346.491180,93.921982 
	C350.292084,94.083153 352.667969,96.990723 353.097107,100.419823 
	C354.010284,107.717308 359.950806,109.933273 364.390930,113.600441 
	C366.716034,112.219185 366.702667,110.191185 367.382812,108.561241 
	C368.612457,105.614288 369.556091,102.206177 373.678192,102.681763 
	C377.881012,103.166656 377.896820,106.725548 378.228333,110.349548 
M353.483765,121.508110 
	C351.265259,125.852348 346.807556,124.346542 343.337189,125.223030 
	C339.715332,126.137764 335.848663,126.109695 332.484497,127.991074 
	C339.146912,129.495377 345.650421,130.764755 352.336090,130.882965 
	C360.451874,131.026428 368.141724,132.746506 374.910950,137.635818 
	C376.774628,138.981934 378.980164,139.896484 381.112152,140.815811 
	C382.718262,141.508377 384.497223,142.456726 386.207214,140.371994 
	C383.624786,136.813644 379.750977,134.696976 376.743195,131.686111 
	C366.673462,121.606094 351.945679,116.210930 346.546387,101.240570 
	C343.460846,108.589104 344.255737,112.009987 349.881592,116.855377 
	C351.231934,118.018379 353.125183,118.709419 353.483765,121.508110 
z"/>
<path fill="white" opacity="1.000000" stroke="none" 
	d="
M77.168587,405.504272 
	C77.859787,402.089355 83.361343,398.310028 86.694626,398.544647 
	C90.046204,398.780548 90.094666,401.732483 90.908951,403.924744 
	C91.838829,406.428223 90.688400,408.424896 88.775574,410.010620 
	C86.821480,411.630463 84.726357,411.293976 82.813019,410.026337 
	C80.901321,408.759857 79.150421,407.250641 77.168587,405.504272 
z"/>
<path fill="white" opacity="1.000000" stroke="none" 
	d="
M195.460709,153.328156 
	C211.120087,147.633362 226.843063,144.238602 243.177750,144.728424 
	C268.175720,145.478012 290.570862,153.793884 311.113098,167.967316 
	C327.934082,179.573242 339.545044,195.343094 348.962128,212.986038 
	C351.517517,217.773544 353.691803,223.051697 351.350189,228.749527 
	C350.189972,231.572723 348.770935,234.483948 345.260712,234.641129 
	C341.647003,234.802948 340.186218,231.863739 338.954651,229.084076 
	C337.542847,225.897659 336.603241,222.474564 334.949585,219.430801 
	C333.425598,216.625671 331.156372,213.997925 327.379486,215.157883 
	C323.702820,216.287064 323.035095,219.410629 323.309448,222.822525 
	C323.944366,230.718628 328.286102,236.437973 334.305847,241.046188 
	C340.065369,245.455185 344.172455,250.759903 345.422699,258.148499 
	C346.908478,266.928680 344.321381,274.433350 338.182983,280.455688 
	C331.595093,286.918915 326.093628,293.703979 325.183868,303.334106 
	C324.943329,305.880798 323.132751,307.841827 321.293518,309.586517 
	C310.483551,319.840485 298.090515,328.008881 285.714050,336.141571 
	C280.538605,339.542480 277.514832,337.544403 277.703857,331.338501 
	C277.982605,322.187897 280.891174,313.473297 284.888336,305.555664 
	C293.068726,289.351837 289.999451,274.626404 281.179291,260.143768 
	C274.538147,249.238983 267.197113,238.893219 255.077560,233.396744 
	C250.551071,231.343918 245.693436,230.021881 240.988693,228.361282 
	C235.068542,226.271729 229.904968,222.993576 225.657898,218.363693 
	C220.792572,213.059814 220.951141,208.521576 226.054764,203.624329 
	C234.909286,195.127853 234.848358,193.507675 225.457657,185.980835 
	C221.800980,183.049927 219.046219,179.634125 219.661880,174.534851 
	C219.951141,172.138901 216.997345,170.565216 218.121933,167.739868 
	C221.039719,165.981750 226.195938,171.168076 228.085342,165.096451 
	C224.914658,163.072021 214.173279,164.259735 211.881638,166.837387 
	C209.541153,169.469986 210.705292,171.644852 213.273270,173.618256 
	C212.488297,174.235550 212.048462,174.823669 211.485474,174.986771 
	C205.693253,176.664734 200.245819,178.644897 196.976822,184.420975 
	C195.752716,186.583847 192.940933,187.264435 190.504257,187.894592 
	C181.183746,190.305008 167.105179,184.417114 162.048584,176.248245 
	C160.190536,173.246567 161.648621,171.755234 163.895569,170.135437 
	C173.550781,163.175201 184.021164,157.761810 195.460709,153.328156 
z"/>
<path fill="white" opacity="1.000000" stroke="none" 
	d="
M232.489655,375.202301 
	C232.608917,378.041260 231.916336,380.230408 229.896286,381.755432 
	C224.689743,385.686035 218.957504,388.733917 213.121689,391.605774 
	C211.589554,392.359711 210.198364,391.901764 208.789383,391.374695 
	C188.559555,383.807190 169.318054,374.367615 152.366653,360.798096 
	C132.834152,345.162415 122.617676,324.071594 117.718277,300.078247 
	C116.121101,292.256622 115.405472,284.302124 116.659866,276.291595 
	C116.924629,274.600861 116.970367,272.853851 118.662682,271.984894 
	C126.351944,268.036713 134.327698,265.418762 143.130341,267.313934 
	C149.026535,268.583405 152.835800,272.366760 154.861435,277.849579 
	C157.402588,284.727814 161.433914,290.314362 166.918549,295.275574 
	C175.761703,303.274841 180.542404,314.086609 185.196091,324.786377 
	C188.777786,333.021393 191.803452,341.496887 195.154541,349.834015 
	C198.402664,357.914978 203.859497,362.230347 213.166412,361.820709 
	C223.517441,361.365143 230.583130,366.604401 232.489655,375.202301 
z"/>
<path fill="white" opacity="1.000000" stroke="none" 
	d="
M335.960297,322.141418 
	C333.994598,319.769928 335.046783,317.652161 335.796631,315.698608 
	C337.467804,311.344818 339.513641,307.130646 338.851227,302.236023 
	C338.661102,300.831238 339.320282,299.435425 340.621338,298.896606 
	C346.059204,296.644623 351.721497,294.761810 357.497375,297.163239 
	C362.629272,299.296875 363.631836,304.306671 364.202820,309.181824 
	C364.696442,313.396515 363.965057,317.539886 361.863251,321.253143 
	C359.755280,324.977295 356.726227,325.122833 354.733826,321.339447 
	C352.515839,317.127777 350.631866,317.145020 347.267456,320.195343 
	C344.269104,322.913757 340.516174,324.579071 335.960297,322.141418 
z"/>
<path fill="white" opacity="1.000000" stroke="none" 
	d="
M322.074860,330.908813 
	C324.167053,330.520325 326.177155,329.330566 327.437225,331.358551 
	C328.466278,333.014740 327.102112,334.537537 326.247437,335.901398 
	C322.469177,341.930634 317.472565,346.730713 311.280365,350.237091 
	C309.676361,351.145355 307.856445,351.835724 306.085541,350.709961 
	C304.199677,349.511078 304.608765,347.462585 304.761993,345.704376 
	C305.110016,341.710632 306.513031,338.368896 310.554352,336.567078 
	C314.344971,334.877014 318.002075,332.887512 322.074860,330.908813 
z"/>
</svg>